<svg xmlns="http://www.w3.org/2000/svg" viewBox="0 0 64 64">
  <!-- Sun -->
  <circle cx="32" cy="32" r="12" fill="#FFD700" />
  <g>
    <!-- Sun rays -->
    <line x1="32" y1="12" x2="32" y2="8" stroke="#FFD700" stroke-width="4" stroke-linecap="round"/>
    <line x1="32" y1="56" x2="32" y2="52" stroke="#FFD700" stroke-width="4" stroke-linecap="round"/>
    <line x1="12" y1="32" x2="8" y2="32" stroke="#FFD700" stroke-width="4" stroke-linecap="round"/>
    <line x1="56" y1="32" x2="52" y2="32" stroke="#FFD700" stroke-width="4" stroke-linecap="round"/>
    <!-- Diagonal rays -->
    <line x1="17.2" y1="17.2" x2="14.4" y2="14.4" stroke="#FFD700" stroke-width="4" stroke-linecap="round"/>
    <line x1="46.8" y1="46.8" x2="49.6" y2="49.6" stroke="#FFD700" stroke-width="4" stroke-linecap="round"/>
    <line x1="17.2" y1="46.8" x2="14.4" y2="49.6" stroke="#FFD700" stroke-width="4" stroke-linecap="round"/>
    <line x1="46.8" y1="17.2" x2="49.6" y2="14.4" stroke="#FFD700" stroke-width="4" stroke-linecap="round"/>
  </g>
  <!-- Cloud -->
  <path d="M44,36c0-5.5-4.5-10-10-10c-1.2,0-2.4,0.2-3.5,0.7C29.1,22.4,25,19,20,19c-6.1,0-11,4.9-11,11c0,0.7,0.1,1.4,0.2,2.1
    C6.9,33.5,5,36.4,5,39.5c0,4.1,3.4,7.5,7.5,7.5h31c4.1,0,7.5-3.4,7.5-7.5C51,36.4,47.9,34.1,44,36z" 
    fill="#FFFFFF" stroke="#E6E6E6" stroke-width="2"/>
</svg>
